<svg width='24' height='24' viewBox='0 0 24 24' xmlns='http://www.w3.org/2000/svg' xmlns:xlink='http://www.w3.org/1999/xlink'><rect width='24' height='24' stroke='none' fill='#000000' opacity='0'/>


<g transform="matrix(0.42 0 0 0.42 12 12)" >
<g style="" >
<g transform="matrix(1 0 0 1 4 4)" >
<path style="stroke: none; stroke-width: 1; stroke-dasharray: none; stroke-linecap: butt; stroke-dashoffset: 0; stroke-linejoin: miter; stroke-miterlimit: 4; fill: rgb(155,16,16); fill-rule: nonzero; opacity: 1;" transform=" translate(-28, -28)" d="M 42 14 L 40 40 L 14 42 z" stroke-linecap="round" />
</g>
<g transform="matrix(1 0 0 1 11 3)" >
<path style="stroke: none; stroke-width: 1; stroke-dasharray: none; stroke-linecap: butt; stroke-dashoffset: 0; stroke-linejoin: miter; stroke-miterlimit: 4; fill: rgb(183,28,28); fill-rule: nonzero; opacity: 1;" transform=" translate(-35, -27)" d="M 28 28 L 40 40 L 42 14 z" stroke-linecap="round" />
</g>
<g transform="matrix(0.71 -0.71 0.71 0.71 0 0)" >
<path style="stroke: none; stroke-width: 1; stroke-dasharray: none; stroke-linecap: butt; stroke-dashoffset: 0; stroke-linejoin: miter; stroke-miterlimit: 4; fill: rgb(198,40,40); fill-rule: nonzero; opacity: 1;" transform=" translate(-24, -24)" d="M 24 12.336 C 11.50676667407762 12.336 1.3789999999999978 17.558150677973625 1.3789999999999978 24 C 1.3789999999999978 30.44184932202638 11.50676667407762 35.664 24 35.664 C 36.49323332592238 35.664 46.621 30.441849322026375 46.621 24 C 46.621 17.558150677973625 36.49323332592238 12.335999999999999 24 12.335999999999999 Z" stroke-linecap="round" />
</g>
<g transform="matrix(1 0 0 1 -5.5 -6)" >
<path style="stroke: none; stroke-width: 1; stroke-dasharray: none; stroke-linecap: butt; stroke-dashoffset: 0; stroke-linejoin: miter; stroke-miterlimit: 4; fill: rgb(229,57,53); fill-rule: nonzero; opacity: 1;" transform=" translate(-18.5, -18)" d="M 10 17 L 17 10 L 25 6 L 31 10 L 28 19 L 19 27 L 10 30 L 6 24 z" stroke-linecap="round" />
</g>
<g transform="matrix(1 0 0 1 0 0)" >
<path style="stroke: none; stroke-width: 1; stroke-dasharray: none; stroke-linecap: butt; stroke-dashoffset: 0; stroke-linejoin: miter; stroke-miterlimit: 4; fill: rgb(255,82,82); fill-rule: nonzero; opacity: 1;" transform=" translate(-24, -24)" d="M 31 10 L 25 6 L 36 6 L 31 10 z M 42 15 L 31 10 L 28 19 L 42 15 z M 19 27 L 32.235 32.235 L 28 19 L 19 27 z M 10 30 L 14 42 L 19 27 L 10 30 z M 6 24 L 6 35 L 10 30 L 6 24 z" stroke-linecap="round" />
</g>
</g>
</g>
</svg>